<?xml version="1.0" encoding="UTF-8" standalone="no"?>
<!DOCTYPE svg PUBLIC "-//W3C//DTD SVG 20010904//EN"
              "http://www.w3.org/TR/2001/REC-SVG-20010904/DTD/svg10.dtd">

<svg xmlns="http://www.w3.org/2000/svg"
     width="135.45mm" height="135.45mm"
     viewBox="0 0 512 512">
  <path id="anthesis"
        fill="white" stroke="white" stroke-width="1"
        d="M 236.00,174.44
           C 242.39,173.62 246.74,173.97 253.00,175.43
             266.42,178.55 275.84,190.30 276.00,204.00
             276.00,204.00 276.00,208.00 276.00,208.00
             275.93,222.50 269.39,229.76 263.27,242.00
             258.38,251.77 255.02,262.03 255.00,273.00
             254.99,278.97 253.53,292.40 259.22,295.83
             261.54,297.22 265.34,297.00 268.00,297.00
             268.00,297.00 417.00,297.00 417.00,297.00
             417.00,297.00 450.00,297.00 450.00,297.00
             455.21,297.01 462.30,297.46 460.67,304.98
             459.49,310.40 454.33,309.99 450.00,310.00
             450.00,310.00 307.00,310.00 307.00,310.00
             307.00,310.00 272.00,310.00 272.00,310.00
             267.97,310.06 262.43,310.28 263.70,316.02
             264.31,318.76 267.73,323.64 269.43,326.00
             277.19,336.81 288.27,344.46 301.00,348.28
             306.65,349.98 319.12,350.53 322.13,355.13
             325.48,360.24 321.94,367.51 312.00,366.41
             300.27,365.11 279.96,359.39 271.00,351.79
             263.86,345.74 255.88,336.20 251.31,328.00
             250.07,325.78 247.21,319.10 244.09,319.62
             241.85,319.99 239.77,324.19 238.72,326.00
             236.59,329.64 231.31,337.97 228.68,340.91
             217.05,353.91 199.68,362.79 182.00,363.00
             161.65,363.23 149.50,359.71 131.00,351.58
             126.20,349.46 119.00,345.47 120.98,339.02
             121.62,336.94 123.03,335.39 125.05,334.60
             130.75,332.36 143.89,339.91 150.00,342.00
             165.67,347.35 178.84,349.99 195.00,344.64
             205.10,341.30 214.74,332.70 220.64,324.00
             223.81,319.33 229.78,311.21 220.00,310.03
             220.00,310.03 215.00,310.03 215.00,310.03
             215.00,310.03 89.00,310.03 89.00,310.03
             89.00,310.03 61.00,310.03 61.00,310.03
             55.89,309.97 49.83,308.94 51.33,302.02
             52.51,296.60 57.67,297.01 62.00,297.00
             62.00,297.00 222.00,297.00 222.00,297.00
             229.90,296.99 233.66,296.61 236.07,288.00
             239.54,275.67 237.38,264.66 244.42,246.00
             248.72,234.62 260.62,217.30 260.87,207.00
             261.15,195.70 251.37,189.59 241.00,190.04
             234.41,190.33 223.98,194.45 221.57,201.00
             220.09,204.56 222.00,209.67 221.57,214.00
             221.10,221.69 220.31,228.55 215.70,235.00
             208.96,244.44 196.19,252.46 185.00,255.51
             178.81,257.20 172.35,257.53 166.00,258.17
             159.68,258.80 153.38,260.26 147.00,259.96
             145.26,259.88 143.67,259.72 142.00,259.20
             130.58,255.60 134.89,246.47 135.83,238.00
             137.84,220.06 142.56,199.12 156.04,186.09
             167.54,174.98 181.14,173.19 196.00,177.43
             196.00,177.43 213.00,183.22 213.00,183.22
             216.01,183.20 220.24,180.22 223.00,178.78
             228.24,176.06 230.29,175.51 236.00,174.44 Z
           M 180.00,195.32
           C 165.57,198.60 161.37,211.07 158.13,224.00
             156.89,228.94 153.13,238.77 161.02,239.84
             163.83,240.22 169.09,238.99 172.00,238.40
             182.00,236.39 194.26,233.22 200.01,224.00
             203.64,218.17 203.82,204.47 198.58,199.51
             194.62,195.75 185.22,194.77 180.00,195.32 Z
           M 183.00,204.74
           C 190.38,203.15 195.01,207.84 192.15,215.00
             190.40,219.37 183.32,226.06 179.00,227.91
             172.03,230.91 166.34,226.52 168.65,219.00
             170.47,213.06 177.63,207.41 183.00,204.74 Z" />
</svg>
