<?xml version="1.0" encoding="UTF-8" standalone="no"?>
<!DOCTYPE svg PUBLIC "-//W3C//DTD SVG 20010904//EN"
              "http://www.w3.org/TR/2001/REC-SVG-20010904/DTD/svg10.dtd">

<svg xmlns="http://www.w3.org/2000/svg"
     width="135.45mm" height="135.45mm"
     viewBox="0 0 512 512">
  <path id="canpoy"
        fill="white" stroke="white" stroke-width="1"
        d="M 239.00,213.00
           C 241.01,197.73 240.00,164.12 240.00,147.00
             240.00,141.99 241.45,129.88 236.77,127.02
             234.77,125.80 231.31,126.00 229.00,126.00
             229.00,126.00 211.00,126.00 211.00,126.00
             190.82,125.97 167.92,118.22 154.17,103.00
             142.69,90.29 136.78,74.09 129.25,59.00
             126.63,53.76 121.77,45.86 125.85,40.23
             128.98,35.92 137.16,36.95 142.00,37.00
             142.00,37.00 152.00,37.91 152.00,37.91
             152.00,37.91 175.00,39.00 175.00,39.00
             175.00,39.00 185.00,39.91 185.00,39.91
             209.70,41.60 227.27,44.17 241.91,67.00
             254.05,85.92 251.75,97.11 257.00,111.00
             257.00,111.00 285.00,81.17 285.00,81.17
             294.23,72.93 304.61,67.68 316.00,63.20
             337.27,54.85 371.06,51.26 394.00,51.00
             394.00,51.00 413.00,50.00 413.00,50.00
             413.00,50.00 426.00,49.00 426.00,49.00
             428.42,48.98 432.79,48.84 434.94,49.74
             444.43,53.70 433.67,71.17 430.75,77.00
             419.27,99.96 404.58,128.47 386.91,146.99
             359.08,176.15 321.82,179.44 284.00,179.00
             284.00,179.00 274.00,177.96 274.00,177.96
             274.00,177.96 266.00,177.96 266.00,177.96
             262.00,177.47 258.51,176.46 255.60,180.23
             253.71,182.66 254.01,186.09 254.00,189.00
             254.00,189.00 254.00,211.00 254.00,211.00
             254.05,215.21 254.27,215.95 255.00,220.00
             261.80,217.28 271.09,205.49 283.00,199.89
             293.21,195.09 309.72,192.05 321.00,192.00
             321.00,192.00 339.00,191.00 339.00,191.00
             339.00,191.00 356.00,191.00 356.00,191.00
             361.46,190.99 370.57,188.47 374.15,193.28
             378.35,198.93 371.91,208.67 369.25,214.00
             360.53,231.44 350.11,252.55 334.00,264.22
             322.01,272.90 309.34,275.09 295.00,276.09
             295.00,276.09 285.00,276.99 285.00,276.99
             285.00,276.99 267.00,275.96 267.00,275.96
             264.04,275.85 260.78,274.98 258.28,276.78
             253.35,280.03 254.20,291.79 258.28,295.26
             260.91,297.32 264.94,297.00 268.00,297.00
             268.00,297.00 417.00,297.00 417.00,297.00
             417.00,297.00 450.00,297.00 450.00,297.00
             455.21,297.01 462.30,297.46 460.67,304.98
             459.49,310.40 454.33,309.99 450.00,310.00
             450.00,310.00 307.00,310.00 307.00,310.00
             307.00,310.00 272.00,310.00 272.00,310.00
             267.97,310.06 262.43,310.28 263.70,316.02
             264.31,318.76 267.73,323.64 269.43,326.00
             276.98,336.51 287.67,344.05 300.00,347.97
             306.64,350.08 320.91,350.13 323.02,357.02
             324.79,362.80 319.36,366.79 314.00,366.62
             301.74,366.23 292.33,361.27 287.02,360.57
             283.68,360.14 281.63,361.53 281.41,365.02
             280.94,372.42 291.56,384.66 298.00,386.95
             301.82,388.32 307.81,385.82 312.00,385.27
             320.94,383.51 325.09,383.66 334.00,385.27
             356.97,390.07 379.79,407.53 400.00,407.99
             409.53,408.20 416.77,405.88 425.00,401.13
             429.50,398.53 435.35,392.85 440.90,395.05
             449.77,398.55 443.96,407.48 439.00,411.24
             429.27,418.60 415.25,423.86 403.00,424.00
             396.08,424.07 393.74,423.66 387.00,422.34
             384.89,421.93 381.53,420.98 379.87,422.93
             377.10,426.20 385.14,437.24 387.24,440.00
             398.48,454.83 413.51,465.50 430.00,473.75
             435.51,476.51 448.06,480.72 449.34,487.00
             451.28,496.59 441.00,496.20 435.00,493.94
             422.02,489.04 403.87,477.97 393.00,469.33
             382.56,461.03 371.59,448.09 365.78,436.00
             356.12,415.90 362.93,413.49 348.00,406.86
             341.47,403.97 332.11,400.79 325.00,400.17
             322.34,399.94 317.68,399.96 316.81,403.23
             316.24,405.37 318.52,409.76 319.25,412.00
             321.34,418.37 321.99,422.35 322.00,429.00
             322.02,445.02 321.07,451.83 315.19,467.00
             313.46,471.47 311.30,477.55 306.00,478.67
             300.58,479.81 296.79,475.17 297.37,470.00
             297.70,467.04 300.77,460.23 301.95,457.00
             304.15,450.94 306.71,440.39 306.96,434.00
             307.42,422.25 302.70,412.88 294.00,405.18
             294.00,405.18 277.09,391.91 277.09,391.91
             269.97,384.73 265.44,374.11 265.15,364.00
             264.84,358.90 266.81,352.11 265.15,348.00
             265.15,348.00 250.77,327.00 250.77,327.00
             249.68,325.01 247.34,320.03 244.92,319.62
             240.67,318.90 240.01,327.33 240.01,330.00
             240.01,330.00 242.85,355.00 242.85,355.00
             243.47,360.19 244.24,370.69 246.45,375.00
             248.86,379.72 255.06,384.62 258.67,389.00
             264.44,396.00 268.32,405.87 267.96,415.00
             267.69,421.93 265.57,428.04 262.13,434.00
             260.22,437.30 256.68,441.27 256.32,445.00
             255.88,449.55 260.26,456.60 260.91,466.00
             261.82,479.05 256.41,491.68 248.85,502.00
             247.07,504.43 243.34,509.58 240.83,510.98
             238.30,512.38 232.98,512.00 230.00,512.00
             229.35,509.07 228.20,506.01 228.89,503.00
             229.79,499.14 234.18,494.34 236.57,491.00
             241.66,483.89 247.06,473.00 244.43,464.00
             240.55,450.70 228.98,466.91 218.00,468.98
             212.22,470.07 206.96,466.29 208.69,460.04
             210.12,454.87 218.60,451.14 223.00,448.31
             233.17,441.76 250.52,428.98 251.80,416.00
             253.27,401.11 235.76,390.93 232.09,384.91
             229.46,380.61 228.29,363.96 227.42,358.00
             227.08,355.69 226.72,349.17 223.83,348.62
             221.38,348.16 219.76,352.27 219.07,354.00
             215.34,363.34 215.36,367.63 207.82,375.99
             201.11,383.42 191.29,388.00 182.00,391.31
             176.93,393.12 168.82,394.79 165.56,399.11
             161.77,404.13 162.93,421.27 163.00,428.00
             163.15,440.63 167.26,454.00 173.31,465.00
             176.05,469.99 183.80,478.39 182.02,483.96
             181.37,486.00 179.93,487.47 177.95,488.26
             170.75,491.12 165.30,483.10 162.05,478.00
             152.54,463.08 147.21,442.67 147.00,425.00
             147.00,425.00 147.00,413.00 147.00,413.00
             146.76,400.39 137.50,406.56 131.00,410.69
             121.62,416.66 115.27,422.13 108.50,431.00
             108.50,431.00 99.37,444.95 99.37,444.95
             95.38,450.04 87.26,451.96 85.32,443.98
             83.61,436.98 92.15,425.35 96.24,420.00
             114.31,396.37 134.94,389.35 162.00,381.02
             170.92,378.28 176.64,377.01 185.00,372.12
             187.22,370.83 191.93,367.85 192.38,365.15
             193.00,361.40 183.26,363.00 181.00,363.00
             181.00,363.00 174.00,363.00 174.00,363.00
             159.52,362.83 145.13,357.65 132.00,352.00
             127.01,349.85 118.87,345.89 120.98,339.02
             123.77,329.96 134.62,335.70 140.00,338.00
             159.81,346.48 181.79,352.69 202.00,341.49
             209.39,337.39 216.70,330.04 221.30,323.00
             227.84,313.01 227.30,310.02 215.00,310.00
             215.00,310.00 89.00,310.00 89.00,310.00
             89.00,310.00 61.00,310.00 61.00,310.00
             55.89,309.97 49.83,308.94 51.33,302.02
             52.51,296.60 57.67,297.01 62.00,297.00
             62.00,297.00 222.00,297.00 222.00,297.00
             226.29,296.99 230.28,297.41 233.35,293.77
             237.47,288.89 240.20,277.50 229.00,277.87
             229.00,277.87 197.00,279.00 197.00,279.00
             197.00,279.00 187.00,278.09 187.00,278.09
             163.15,276.42 141.58,270.60 123.00,254.70
             112.56,245.77 104.36,234.54 97.05,223.00
             97.05,223.00 74.25,181.00 74.25,181.00
             72.00,176.50 67.20,169.00 70.74,164.23
             73.97,159.86 83.01,160.95 88.00,161.00
             88.00,161.00 98.00,161.96 98.00,161.96
             98.00,161.96 112.00,161.96 112.00,161.96
             112.00,161.96 123.00,162.96 123.00,162.96
             150.37,164.15 180.36,167.39 204.00,182.44
             209.96,186.23 221.01,195.89 225.96,201.00
             230.68,205.88 232.64,209.99 239.00,213.00 Z
           M 231.00,86.00
           C 230.40,80.36 228.61,77.52 225.24,73.00
             213.40,57.10 193.13,56.43 175.00,55.99
             175.00,55.99 163.00,55.00 163.00,55.00
             160.19,54.97 150.68,54.24 149.11,56.60
             147.60,58.89 150.21,63.83 151.26,66.00
             155.47,74.72 159.57,83.77 166.17,90.99
             177.63,103.51 192.65,107.89 209.00,109.09
             218.76,109.80 219.87,111.28 230.00,108.00
             227.83,100.67 221.70,98.82 215.00,96.72
             211.32,95.56 205.92,94.19 204.66,89.96
             204.14,88.24 204.56,86.58 205.60,85.15
             208.89,80.61 214.56,82.41 219.00,83.72
             224.78,85.42 224.72,85.86 231.00,86.00 Z
           M 265.00,131.00
           C 265.00,131.00 285.00,117.60 285.00,117.60
             296.43,110.79 319.76,102.05 333.00,101.01
             341.62,100.34 345.29,107.50 338.89,112.30
             335.56,114.80 321.13,117.44 316.00,119.02
             301.02,123.66 288.69,129.36 277.09,140.29
             273.84,143.35 267.45,151.09 265.35,155.00
             264.38,156.81 263.01,159.55 264.13,161.57
             265.72,164.45 278.59,164.96 282.00,165.00
             282.00,165.00 304.00,165.00 304.00,165.00
             324.53,164.97 349.39,158.87 366.00,146.52
             376.66,138.60 384.53,128.89 391.97,118.00
             400.16,106.02 406.77,92.95 413.25,80.00
             414.70,77.08 419.32,69.36 417.79,66.31
             416.14,63.01 406.33,63.96 403.00,64.00
             403.00,64.00 386.00,65.00 386.00,65.00
             386.00,65.00 376.00,65.91 376.00,65.91
             348.82,67.81 320.44,72.00 298.00,88.76
             293.78,91.91 288.80,97.16 285.00,101.00
             277.78,108.31 266.92,120.75 265.00,131.00 Z
           M 236.00,250.00
           C 235.27,234.27 225.75,220.83 215.00,210.00
             191.23,186.07 170.38,181.07 138.00,177.83
             138.00,177.83 115.00,176.00 115.00,176.00
             115.00,176.00 98.00,175.43 98.00,175.43
             95.81,175.17 92.57,174.75 91.00,176.74
             88.24,180.23 93.41,187.88 95.14,191.00
             102.02,203.41 108.27,215.50 116.73,227.00
             134.57,251.21 155.47,261.72 185.00,264.08
             185.00,264.08 195.00,264.91 195.00,264.91
             195.00,264.91 214.00,264.91 214.00,264.91
             216.07,264.59 219.85,263.94 220.70,261.70
             222.16,257.87 212.61,249.53 210.00,247.04
             194.63,232.36 180.87,227.79 162.00,220.29
             156.46,218.09 151.32,212.22 158.11,207.78
             162.90,204.64 174.11,210.23 179.00,212.20
             191.71,217.33 204.51,224.60 215.00,233.44
             221.22,238.68 227.93,248.70 236.00,250.00 Z
           M 263.00,260.00
           C 269.67,263.09 280.59,263.08 288.00,263.00
             305.35,262.79 321.03,258.75 333.27,245.83
             341.31,237.34 345.83,228.01 351.42,218.00
             352.92,215.31 356.38,209.75 354.00,206.74
             351.93,204.10 340.47,204.99 337.00,205.00
             337.00,205.00 325.00,205.91 325.00,205.91
             310.14,206.93 298.33,207.35 285.00,215.46
             278.53,219.40 272.05,224.44 270.00,232.00
             276.94,230.74 284.27,226.88 291.00,224.44
             295.49,222.80 312.89,217.85 317.00,218.31
             323.34,219.02 326.45,224.99 320.86,229.49
             317.40,232.29 308.68,233.33 304.00,234.72
             289.90,238.91 269.49,245.78 263.00,260.00 Z" />
</svg>
