<?xml version="1.0" encoding="UTF-8" standalone="no"?>
<!DOCTYPE svg PUBLIC "-//W3C//DTD SVG 20010904//EN"
              "http://www.w3.org/TR/2001/REC-SVG-20010904/DTD/svg10.dtd">

<svg xmlns="http://www.w3.org/2000/svg"
     width="135.45mm" height="135.45mm"
     viewBox="0 0 512 512">
  <path id="emergence"
        fill="white" stroke="white" stroke-width="1"
        d="M 54.15,298.02
           C 59.62,296.07 78.09,297.00 85.00,297.00
             85.00,297.00 149.00,297.00 149.00,297.00
             149.00,297.00 367.00,297.00 367.00,297.00
             367.00,297.00 440.00,297.00 440.00,297.00
             446.11,297.00 462.96,294.40 460.67,304.98
             459.49,310.40 454.33,309.99 450.00,310.00
             450.00,310.00 147.00,310.00 147.00,310.00
             147.00,310.00 61.00,310.00 61.00,310.00
             50.55,309.93 48.22,303.28 54.15,298.02 Z
           M 231.00,323.46
           C 244.85,321.55 265.60,323.87 275.91,334.09
             285.52,343.62 292.43,366.40 285.59,379.00
             279.50,390.20 266.21,397.34 254.00,399.54
             238.47,402.33 218.64,389.00 209.93,377.00
             209.93,377.00 200.81,361.00 200.81,361.00
             197.19,355.07 189.31,343.01 193.02,336.04
             195.60,331.20 200.36,331.24 205.00,330.10
             205.00,330.10 231.00,323.46 231.00,323.46 Z
           M 237.00,341.28
           C 232.69,341.92 218.25,343.78 216.06,347.43
             213.93,350.98 219.35,359.01 221.36,362.00
             229.08,373.52 238.86,384.10 254.00,381.79
             259.15,381.00 267.33,375.93 269.26,370.99
             271.86,364.34 268.31,353.19 263.67,348.10
             257.79,341.65 245.27,340.52 237.00,341.28 Z
           M 237.02,351.78
           C 241.66,351.02 253.10,354.38 256.58,357.65
             260.74,361.54 259.84,367.92 253.98,369.39
             246.00,371.39 222.11,359.93 237.02,351.78 Z" />
</svg>
