<?xml version="1.0" encoding="UTF-8" standalone="no"?>
<!DOCTYPE svg PUBLIC "-//W3C//DTD SVG 20010904//EN"
              "http://www.w3.org/TR/2001/REC-SVG-20010904/DTD/svg10.dtd">

<svg xmlns="http://www.w3.org/2000/svg"
     width="135.45mm" height="135.45mm"
     viewBox="0 0 512 512">
  <path id="max rooting depth"
        fill="white" stroke="white" stroke-width="1"
        d="M 230.00,512.00
           C 229.35,509.07 228.20,506.01 228.89,503.00
             229.79,499.14 234.18,494.34 236.57,491.00
             241.66,483.89 247.06,473.00 244.43,464.00
             240.55,450.70 228.98,466.91 218.00,468.98
             212.22,470.07 206.96,466.29 208.69,460.04
             210.12,454.87 218.60,451.14 223.00,448.31
             233.17,441.76 250.52,428.98 251.80,416.00
             253.27,401.11 235.76,390.93 232.09,384.91
             229.46,380.61 228.29,363.96 227.42,358.00
             227.08,355.69 226.72,349.17 223.83,348.62
             221.38,348.16 219.76,352.27 219.07,354.00
             215.34,363.34 215.36,367.63 207.82,375.99
             201.11,383.42 191.29,388.00 182.00,391.31
             176.93,393.12 168.82,394.79 165.56,399.11
             161.77,404.13 162.93,421.27 163.00,428.00
             163.15,440.63 167.26,454.00 173.31,465.00
             176.05,469.99 183.80,478.39 182.02,483.96
             181.37,486.00 179.93,487.47 177.95,488.26
             170.75,491.12 165.30,483.10 162.05,478.00
             152.54,463.08 147.21,442.67 147.00,425.00
             147.00,425.00 147.00,413.00 147.00,413.00
             146.76,400.39 137.50,406.56 131.00,410.69
             121.62,416.66 115.27,422.13 108.50,431.00
             108.50,431.00 99.37,444.95 99.37,444.95
             95.38,450.04 87.26,451.96 85.32,443.98
             83.61,436.98 92.15,425.35 96.24,420.00
             114.31,396.37 134.94,389.35 162.00,381.02
             170.92,378.28 176.64,377.01 185.00,372.12
             187.22,370.83 191.93,367.85 192.38,365.15
             193.00,361.40 183.26,363.00 181.00,363.00
             181.00,363.00 174.00,363.00 174.00,363.00
             159.52,362.83 145.13,357.65 132.00,352.00
             127.01,349.85 118.87,345.89 120.98,339.02
             123.77,329.96 134.62,335.70 140.00,338.00
             159.81,346.48 181.79,352.69 202.00,341.49
             209.39,337.39 216.70,330.04 221.30,323.00
             227.84,313.01 227.30,310.02 215.00,310.00
             215.00,310.00 89.00,310.00 89.00,310.00
             89.00,310.00 61.00,310.00 61.00,310.00
             55.89,309.97 49.83,308.94 51.33,302.02
             52.51,296.60 57.67,297.01 62.00,297.00
             62.00,297.00 195.00,297.00 195.00,297.00
             195.00,297.00 219.00,297.00 219.00,297.00
             222.32,297.00 228.05,297.40 230.90,295.83
             234.78,293.67 236.45,288.17 236.82,284.00
             237.71,274.23 229.92,275.92 223.00,276.00
             223.00,276.00 208.00,276.96 208.00,276.96
             182.95,275.91 164.09,271.28 147.46,251.00
             138.54,240.11 130.12,222.77 123.75,210.00
             121.32,205.12 116.64,197.38 121.51,192.51
             125.20,188.81 133.87,190.99 139.00,191.00
             139.00,191.00 155.00,191.00 155.00,191.00
             155.00,191.00 175.00,192.00 175.00,192.00
             191.25,192.19 209.96,196.74 223.00,206.68
             230.30,212.24 231.91,214.42 237.85,220.99
             240.13,223.51 243.33,227.50 247.00,227.74
             250.98,227.99 254.71,223.61 257.15,220.96
             264.42,213.09 268.55,208.34 278.00,202.62
             289.90,195.41 308.16,192.02 322.00,192.00
             322.00,192.00 339.00,190.92 339.00,190.92
             339.00,190.92 362.00,190.92 362.00,190.92
             365.99,190.46 370.22,189.23 373.49,192.51
             379.38,198.41 370.25,212.00 367.25,218.00
             355.98,240.54 342.88,264.82 317.00,272.56
             308.38,275.14 288.74,277.75 280.00,276.72
             275.26,276.15 260.64,274.33 257.31,277.44
             253.53,280.99 254.51,292.05 258.42,295.26
             260.91,297.32 264.94,297.00 268.00,297.00
             268.00,297.00 417.00,297.00 417.00,297.00
             417.00,297.00 450.00,297.00 450.00,297.00
             455.21,297.01 462.30,297.46 460.67,304.98
             459.49,310.40 454.33,309.99 450.00,310.00
             450.00,310.00 307.00,310.00 307.00,310.00
             307.00,310.00 272.00,310.00 272.00,310.00
             267.97,310.06 262.43,310.28 263.70,316.02
             264.31,318.76 267.73,323.64 269.43,326.00
             276.98,336.51 287.67,344.05 300.00,347.97
             306.64,350.08 320.91,350.13 323.02,357.02
             324.79,362.80 319.36,366.79 314.00,366.62
             301.74,366.23 292.33,361.27 287.02,360.57
             283.68,360.14 281.63,361.53 281.41,365.02
             280.94,372.42 291.56,384.66 298.00,386.95
             301.82,388.32 307.81,385.82 312.00,385.27
             320.94,383.51 325.09,383.66 334.00,385.27
             356.97,390.07 379.79,407.53 400.00,407.99
             409.53,408.20 416.77,405.88 425.00,401.13
             429.50,398.53 435.35,392.85 440.90,395.05
             449.77,398.55 443.96,407.48 439.00,411.24
             429.27,418.60 415.25,423.86 403.00,424.00
             396.08,424.07 393.74,423.66 387.00,422.34
             384.89,421.93 381.53,420.98 379.87,422.93
             377.10,426.20 385.14,437.24 387.24,440.00
             398.48,454.83 413.51,465.50 430.00,473.75
             435.51,476.51 448.06,480.72 449.34,487.00
             451.28,496.59 441.00,496.20 435.00,493.94
             422.02,489.04 403.87,477.97 393.00,469.33
             382.56,461.03 371.59,448.09 365.78,436.00
             356.12,415.90 362.93,413.49 348.00,406.86
             341.47,403.97 332.11,400.79 325.00,400.17
             322.34,399.94 317.68,399.96 316.81,403.23
             316.24,405.37 318.52,409.76 319.25,412.00
             321.34,418.37 321.99,422.35 322.00,429.00
             322.02,445.02 321.07,451.83 315.19,467.00
             313.46,471.47 311.30,477.55 306.00,478.67
             300.58,479.81 296.79,475.17 297.37,470.00
             297.70,467.04 300.77,460.23 301.95,457.00
             304.15,450.94 306.71,440.39 306.96,434.00
             307.42,422.25 302.70,412.88 294.00,405.18
             294.00,405.18 277.09,391.91 277.09,391.91
             269.97,384.73 265.44,374.11 265.15,364.00
             264.84,358.90 266.81,352.11 265.15,348.00
             265.15,348.00 250.77,327.00 250.77,327.00
             249.68,325.01 247.34,320.03 244.92,319.62
             240.67,318.90 240.01,327.33 240.01,330.00
             240.01,330.00 242.85,355.00 242.85,355.00
             243.47,360.19 244.24,370.69 246.45,375.00
             248.86,379.72 255.06,384.62 258.67,389.00
             264.44,396.00 268.32,405.87 267.96,415.00
             267.70,421.53 265.82,427.30 262.69,433.00
             260.96,436.15 257.11,440.95 256.47,444.00
             255.65,447.86 259.97,458.33 260.71,464.00
             262.43,477.14 257.10,490.50 249.57,501.00
             244.47,508.12 243.06,511.94 234.00,512.00
             234.00,512.00 230.00,512.00 230.00,512.00 Z
           M 225.00,232.00
           C 223.01,224.68 217.18,220.05 211.00,216.09
             197.51,207.44 185.23,206.95 170.00,205.91
             170.00,205.91 159.00,205.00 159.00,205.00
             155.44,204.98 143.09,204.08 141.00,206.74
             138.62,209.75 142.08,215.31 143.58,218.00
             149.48,228.56 153.92,237.85 162.58,246.71
             176.74,261.22 194.71,263.22 214.00,263.00
             219.42,262.93 227.13,262.25 232.00,260.00
             225.51,245.78 205.10,238.91 191.00,234.72
             186.26,233.31 177.67,232.31 174.13,229.51
             167.64,224.37 173.09,218.86 178.00,218.31
             182.11,217.85 199.51,222.80 204.00,224.44
             210.73,226.88 218.06,230.74 225.00,232.00 Z
           M 263.00,260.00
           C 269.67,263.09 280.59,263.08 288.00,263.00
             305.35,262.79 321.03,258.75 333.27,245.83
             341.31,237.34 345.83,228.01 351.42,218.00
             352.92,215.31 356.38,209.75 354.00,206.74
             351.93,204.10 340.47,204.99 337.00,205.00
             337.00,205.00 325.00,205.91 325.00,205.91
             310.14,206.93 298.33,207.35 285.00,215.46
             278.53,219.40 272.05,224.44 270.00,232.00
             276.94,230.74 284.27,226.88 291.00,224.44
             295.49,222.80 312.89,217.85 317.00,218.31
             323.34,219.02 326.45,224.99 320.86,229.49
             317.40,232.29 308.68,233.33 304.00,234.72
             289.90,238.91 269.49,245.78 263.00,260.00 Z" />
</svg>
