<?xml version="1.0" encoding="UTF-8" standalone="no"?>
<!DOCTYPE svg PUBLIC "-//W3C//DTD SVG 20010904//EN"
              "http://www.w3.org/TR/2001/REC-SVG-20010904/DTD/svg10.dtd">

<svg xmlns="http://www.w3.org/2000/svg"
     width="180.6mm" height="180.6mm"
     viewBox="0 0 512 512">
  <path id="Selection"
        fill="white" stroke="white" stroke-width="1"
        d="M 416.00,184.00
           C 412.38,192.14 412.10,197.65 410.12,206.00
             410.12,206.00 401.28,239.00 401.28,239.00
             393.08,266.24 380.03,294.77 365.19,319.00
             309.02,410.69 221.29,463.48 119.00,489.37
             95.62,495.29 72.00,499.77 48.00,502.17
             48.00,502.17 30.00,504.00 30.00,504.00
             22.61,504.08 5.05,506.14 1.02,498.90
             -0.20,496.70 0.00,493.46 0.00,491.00
             0.00,491.00 0.00,474.00 0.00,474.00
             0.03,452.99 7.46,416.20 12.00,395.00
             33.41,294.99 88.84,198.81 176.00,142.69
             215.90,117.00 265.37,98.41 312.00,89.61
             312.00,89.61 365.00,82.17 365.00,82.17
             365.00,82.17 380.00,81.04 380.00,81.04
             382.52,80.92 386.55,81.27 388.68,79.83
             392.96,76.93 387.40,67.87 385.95,64.00
             381.33,51.65 376.22,35.19 375.75,22.00
             375.51,15.44 378.11,7.98 386.00,8.29
             396.44,8.69 396.92,22.40 398.45,30.00
             403.12,53.22 413.52,76.81 430.04,94.00
             446.69,111.33 468.13,121.34 492.00,123.09
             499.48,123.63 511.57,123.11 511.98,133.00
             512.07,135.10 512.18,138.69 511.01,140.47
             507.64,145.59 495.44,145.36 490.00,144.72
             490.00,144.72 466.00,142.09 466.00,142.09
             450.37,143.05 437.36,157.37 438.04,173.00
             438.29,178.68 440.59,184.34 443.77,189.00
             446.40,192.85 450.37,197.10 450.70,202.00
             451.14,208.77 443.83,216.27 435.00,210.99
             425.08,205.06 422.89,192.48 416.00,184.00 Z
           M 381.00,104.00
           C 373.38,101.83 359.18,103.87 351.00,104.85
             327.60,107.64 306.71,111.43 284.00,117.86
             229.48,133.31 184.75,157.22 143.00,195.91
             143.00,195.91 134.04,204.01 134.04,204.01
             93.63,245.24 64.68,296.50 46.33,351.00
             37.65,376.80 30.70,403.02 26.73,430.00
             25.48,438.46 22.13,453.02 24.00,461.00
             26.11,460.55 27.07,460.46 29.00,459.26
             29.00,459.26 52.00,437.00 52.00,437.00
             54.56,434.44 59.99,429.68 60.35,426.00
             60.65,422.86 57.69,419.54 56.09,417.00
             53.79,413.38 51.83,409.17 50.76,405.00
             45.72,385.34 61.93,365.48 82.00,365.01
             88.74,364.86 94.08,365.95 100.00,369.36
             102.66,370.89 106.59,374.52 109.00,375.16
             114.29,376.56 123.59,365.74 126.89,362.00
             128.43,360.26 130.73,357.76 129.75,355.22
             128.78,352.68 121.63,350.14 119.00,348.53
             112.36,344.47 107.51,339.64 103.46,333.00
             84.76,302.29 105.66,264.59 142.00,265.00
             154.82,265.15 167.34,271.31 175.70,281.00
             179.47,285.37 180.68,287.89 183.00,293.00
             183.86,294.88 184.93,297.67 187.21,298.18
             190.02,298.80 193.15,295.69 195.00,293.96
             195.00,293.96 210.77,278.00 210.77,278.00
             212.48,275.91 214.44,273.20 212.36,270.65
             211.06,269.05 202.71,265.72 200.00,264.07
             193.55,260.16 186.74,253.38 182.71,247.00
             167.53,222.97 175.12,190.52 200.00,176.34
             209.36,171.00 216.47,169.88 227.00,170.00
             242.71,170.19 255.83,178.06 265.67,190.00
             270.37,195.70 270.77,199.28 273.90,204.94
             275.07,207.05 276.34,208.77 279.04,208.12
             283.36,207.08 295.43,194.60 295.56,190.00
             295.66,186.71 290.78,178.51 289.44,174.00
             285.86,162.00 288.81,148.76 296.52,139.00
             303.70,129.91 317.30,123.37 329.00,124.09
             333.57,124.37 339.82,126.43 344.00,128.31
             346.55,129.46 350.21,131.65 353.00,131.56
             356.94,131.45 360.38,127.58 363.00,125.00
             368.80,119.28 378.09,111.43 381.00,104.00 Z
           M 421.01,145.00
           C 425.09,143.05 436.27,133.01 434.60,128.04
             433.58,125.01 426.71,119.83 423.43,121.39
             421.13,122.48 421.08,125.84 421.01,128.00
             420.84,133.70 420.04,139.36 421.01,145.00 Z
           M 399.00,122.00
           C 392.13,123.46 388.81,128.19 384.00,133.00
             384.00,133.00 359.00,158.00 359.00,158.00
             359.00,158.00 341.00,177.00 341.00,177.00
             341.00,177.00 260.00,258.00 260.00,258.00
             260.00,258.00 168.00,350.00 168.00,350.00
             168.00,350.00 71.00,447.00 71.00,447.00
             71.00,447.00 47.04,471.00 47.04,471.00
             42.72,475.61 39.26,481.58 49.00,480.83
             73.02,478.97 111.79,470.24 135.00,463.02
             196.95,443.77 252.19,415.83 298.99,369.96
             298.99,369.96 307.09,361.00 307.09,361.00
             342.37,323.07 368.38,276.83 382.71,227.00
             390.00,201.64 395.98,175.34 398.08,149.00
             398.80,140.03 401.16,130.89 399.00,122.00 Z
           M 325.00,145.34
           C 316.86,147.29 310.06,153.30 309.20,162.00
             308.84,165.58 309.95,172.31 315.02,171.12
             317.15,170.61 319.44,168.42 321.00,166.96
             323.92,164.22 333.39,155.34 334.34,152.00
             336.05,146.06 329.11,145.07 325.00,145.34 Z
           M 224.00,190.33
           C 213.70,191.87 206.39,194.80 200.56,204.00
             188.38,223.22 201.12,248.58 224.00,249.91
             256.15,251.78 267.89,205.44 236.00,192.63
             231.93,191.00 228.38,190.23 224.00,190.33 Z
           M 476.02,199.74
           C 479.50,198.90 482.69,198.59 485.78,200.89
             492.09,205.59 490.17,215.57 483.00,218.26
             472.61,222.15 463.88,206.53 476.02,199.74 Z
           M 140.00,285.39
           C 134.03,286.31 128.84,288.09 124.47,292.47
             108.78,308.14 120.10,334.85 144.00,332.91
             162.09,331.44 170.37,310.60 160.87,296.01
             156.48,289.28 147.87,285.48 140.00,285.39 Z
           M 81.00,386.38
           C 75.71,387.88 71.99,391.21 71.42,397.00
             71.00,401.24 73.85,408.04 79.00,407.42
             84.57,406.76 101.66,390.18 86.00,386.38
             84.05,385.95 82.91,386.17 81.00,386.38 Z" />
</svg>
