<?xml version="1.0" encoding="UTF-8" standalone="no"?>
<!DOCTYPE svg PUBLIC "-//W3C//DTD SVG 20010904//EN"
              "http://www.w3.org/TR/2001/REC-SVG-20010904/DTD/svg10.dtd">

<svg xmlns="http://www.w3.org/2000/svg"
     width="142.857mm" height="142.857mm"
     viewBox="0 0 512 512">
  <path id="corn"
        fill="white" stroke="white" stroke-width="1"
        d="M 146.00,175.00
           C 151.79,166.91 159.77,160.65 167.00,153.91
             167.00,153.91 205.00,119.73 205.00,119.73
             247.74,83.15 293.60,49.95 344.00,24.75
             367.00,13.25 401.14,0.04 427.00,0.00
             440.66,-0.02 447.45,-0.62 461.00,3.44
             483.94,10.30 502.18,29.15 508.96,52.00
             512.73,64.69 512.15,75.00 512.00,88.00
             511.66,116.39 493.76,157.18 480.31,182.00
             443.40,250.09 391.60,312.40 337.00,367.00
             345.46,371.92 356.10,381.93 362.99,389.00
             367.74,393.88 371.90,398.69 370.30,406.00
             369.00,411.95 364.12,415.88 360.00,420.00
             360.00,420.00 336.00,444.00 336.00,444.00
             327.43,452.57 320.81,459.76 311.00,467.11
             282.04,488.79 250.84,499.63 215.00,502.09
             215.00,502.09 206.00,502.98 206.00,502.98
             206.00,502.98 195.00,501.96 195.00,501.96
             195.00,501.96 186.00,501.96 186.00,501.96
             171.91,500.48 156.28,496.82 143.00,491.95
             143.00,491.95 123.00,483.22 123.00,483.22
             121.07,482.20 115.19,478.46 113.42,478.48
             110.50,478.51 104.18,485.82 102.00,488.00
             97.30,492.70 82.74,508.17 78.00,510.55
             75.23,511.93 72.05,512.13 69.00,511.96
             61.32,511.52 55.17,503.17 50.00,498.00
             50.00,498.00 13.00,461.00 13.00,461.00
             6.21,454.21 -0.52,450.28 0.04,440.00
             0.58,430.25 17.08,416.92 24.00,410.00
             26.19,407.81 33.41,401.65 33.46,398.72
             33.51,396.41 29.05,389.49 27.81,387.00
             24.71,380.80 20.13,369.61 18.03,363.00
             14.14,350.77 10.07,332.77 9.84,320.00
             9.84,320.00 9.84,307.00 9.84,307.00
             9.84,307.00 9.84,295.00 9.84,295.00
             10.38,262.65 27.50,222.97 47.45,198.00
             54.92,188.64 63.55,180.45 72.00,172.00
             72.00,172.00 93.00,151.00 93.00,151.00
             97.41,146.59 100.40,142.42 107.00,142.04
             116.59,141.50 119.63,145.63 126.00,152.00
             126.00,152.00 146.00,175.00 146.00,175.00 Z
           M 432.00,28.00
           C 407.41,28.00 381.93,37.64 360.00,48.26
             360.00,48.26 339.00,59.00 339.00,59.00
             341.84,65.00 349.15,71.25 354.00,76.00
             355.67,77.63 358.51,80.80 361.00,80.80
             363.24,80.80 365.44,78.45 367.00,77.07
             367.00,77.07 380.00,66.08 380.00,66.08
             380.00,66.08 415.00,39.72 415.00,39.72
             420.38,35.96 427.43,32.25 432.00,28.00 Z
           M 470.00,41.00
           C 458.40,41.26 448.32,48.39 439.00,54.67
             439.00,54.67 397.00,87.42 397.00,87.42
             397.00,87.42 381.00,101.00 381.00,101.00
             381.00,101.00 392.00,114.00 392.00,114.00
             392.00,114.00 410.00,131.00 410.00,131.00
             422.02,118.71 446.64,87.60 456.33,73.00
             462.70,63.41 469.73,52.86 470.00,41.00 Z
           M 270.00,104.00
           C 273.17,110.70 286.21,122.22 292.00,128.00
             294.32,130.31 298.40,135.41 302.00,134.75
             304.16,134.36 307.40,131.39 309.00,129.91
             309.00,129.91 322.00,117.58 322.00,117.58
             322.00,117.58 333.00,107.42 333.00,107.42
             334.52,106.07 337.14,104.03 337.66,101.99
             338.38,99.19 335.70,96.81 333.98,95.00
             333.98,95.00 319.00,80.02 319.00,80.02
             317.07,78.19 314.92,75.78 312.00,76.15
             309.71,76.45 302.33,81.78 300.00,83.33
             300.00,83.33 270.00,104.00 270.00,104.00 Z
           M 484.00,80.00
           C 484.00,80.00 458.77,116.00 458.77,116.00
             458.77,116.00 430.00,152.00 430.00,152.00
             435.67,157.67 446.37,169.86 453.00,173.00
             453.00,173.00 465.74,148.00 465.74,148.00
             475.92,126.97 484.00,103.53 484.00,80.00 Z
           M 360.00,121.00
           C 360.00,121.00 333.00,145.00 333.00,145.00
             333.00,145.00 321.00,157.00 321.00,157.00
             321.00,157.00 356.00,191.00 356.00,191.00
             356.00,191.00 391.00,152.00 391.00,152.00
             391.00,152.00 360.00,121.00 360.00,121.00 Z
           M 243.00,193.00
           C 243.00,193.00 269.00,168.00 269.00,168.00
             271.13,165.87 278.03,159.54 278.66,157.00
             279.49,153.68 275.09,150.11 273.00,148.00
             273.00,148.00 255.00,130.00 255.00,130.00
             253.11,128.12 249.76,124.30 247.00,124.11
             244.10,123.91 239.25,128.39 237.00,130.20
             237.00,130.20 215.00,148.58 215.00,148.58
             212.59,150.65 207.42,154.34 208.34,158.00
             208.97,160.54 215.87,166.87 218.00,169.00
             224.16,175.16 236.70,188.49 243.00,193.00 Z
           M 408.00,242.00
           C 408.00,242.00 427.66,214.00 427.66,214.00
             429.31,211.58 434.99,203.30 435.63,201.00
             436.63,197.41 434.26,195.40 431.98,193.00
             431.98,193.00 418.00,179.00 418.00,179.00
             416.40,177.44 413.47,174.20 411.09,174.20
             408.99,174.20 407.15,176.63 405.83,178.02
             405.83,178.02 394.83,190.00 394.83,190.00
             394.83,190.00 381.72,204.00 381.72,204.00
             380.48,205.44 377.77,208.21 377.34,210.00
             376.47,213.51 381.76,217.75 384.00,220.00
             389.78,225.79 401.30,238.83 408.00,242.00 Z
           M 81.00,412.00
           C 95.90,397.10 115.10,379.32 126.65,362.00
             151.90,324.14 158.56,276.22 144.33,233.00
             139.16,217.29 131.18,202.04 120.99,189.00
             118.87,186.30 112.33,177.20 108.99,177.20
             105.78,177.20 98.43,185.57 96.00,188.00
             85.13,198.87 73.60,209.37 64.72,222.00
             34.50,264.96 28.96,318.79 49.58,367.00
             55.56,380.98 68.78,403.23 81.00,412.00 Z
           M 186.00,176.00
           C 179.09,180.38 174.70,185.24 169.00,191.00
             166.79,193.24 162.89,196.89 162.18,200.00
             161.41,203.36 166.54,213.16 167.95,217.00
             173.24,231.43 175.28,241.07 178.00,256.00
             185.85,251.78 204.55,231.45 212.00,224.00
             214.48,221.52 221.60,215.74 220.66,212.00
             220.03,209.46 213.13,203.13 211.00,201.00
             211.00,201.00 186.00,176.00 186.00,176.00 Z
           M 301.00,176.00
           C 294.35,180.76 287.15,189.08 281.00,194.96
             281.00,194.96 273.00,202.09 273.00,202.09
             270.75,204.18 264.20,209.95 264.20,213.00
             264.20,215.24 266.58,217.49 268.02,219.00
             268.02,219.00 279.00,230.00 279.00,230.00
             279.00,230.00 292.00,243.00 292.00,243.00
             293.67,244.63 296.51,247.80 299.00,247.80
             302.07,247.80 307.79,241.21 310.00,239.00
             310.00,239.00 336.00,211.00 336.00,211.00
             336.00,211.00 301.00,176.00 301.00,176.00 Z
           M 356.00,306.00
           C 356.00,306.00 378.75,279.00 378.75,279.00
             380.48,276.90 387.21,268.98 387.85,267.00
             389.02,263.34 385.27,260.32 383.00,258.00
             383.00,258.00 364.00,239.00 364.00,239.00
             361.89,236.91 358.32,232.51 355.00,233.34
             352.54,233.95 347.00,240.00 345.00,242.00
             345.00,242.00 319.00,270.00 319.00,270.00
             319.00,270.00 356.00,306.00 356.00,306.00 Z
           M 243.00,233.00
           C 243.00,233.00 222.00,253.00 222.00,253.00
             222.00,253.00 198.00,276.00 198.00,276.00
             198.00,276.00 179.43,296.00 179.43,296.00
             179.43,296.00 175.60,316.00 175.60,316.00
             175.60,316.00 167.00,345.00 167.00,345.00
             167.00,345.00 196.00,336.42 196.00,336.42
             196.00,336.42 216.00,332.69 216.00,332.69
             220.19,330.65 232.89,317.11 237.00,313.00
             246.71,303.29 272.81,278.75 279.00,269.00
             279.00,269.00 243.00,233.00 243.00,233.00 Z
           M 256.00,334.00
           C 256.00,334.00 270.00,336.66 270.00,336.66
             278.48,338.50 286.85,341.07 295.00,344.05
             298.66,345.39 308.96,350.75 312.00,350.05
             315.83,349.17 327.71,336.44 330.98,333.00
             332.73,331.16 335.37,328.83 334.66,326.00
             334.13,323.88 330.58,320.59 329.00,319.00
             329.00,319.00 316.00,306.00 316.00,306.00
             316.00,306.00 305.00,295.02 305.00,295.02
             303.49,293.58 301.24,291.20 299.00,291.20
             295.33,291.20 289.43,299.30 286.91,302.00
             286.91,302.00 256.00,334.00 256.00,334.00 Z
           M 230.00,360.24
           C 230.00,360.24 217.00,361.17 217.00,361.17
             217.00,361.17 201.00,363.89 201.00,363.89
             169.29,371.18 147.95,384.05 125.00,407.00
             125.00,407.00 108.00,424.00 108.00,424.00
             106.20,425.82 102.20,429.32 102.20,432.00
             102.20,434.56 105.24,437.03 107.00,438.57
             111.85,442.81 116.64,446.45 122.00,450.00
             144.53,464.92 166.36,471.59 193.00,474.17
             193.00,474.17 202.00,475.00 202.00,475.00
             237.16,475.41 273.27,462.61 300.00,439.70
             300.00,439.70 311.00,429.00 311.00,429.00
             311.00,429.00 329.00,411.00 329.00,411.00
             330.79,409.20 334.80,405.68 334.80,403.01
             334.80,400.50 331.73,398.24 330.00,396.75
             324.32,391.90 320.21,388.79 314.00,384.67
             288.02,367.43 264.45,362.35 234.00,360.24
             234.00,360.24 230.00,360.24 230.00,360.24 Z
           M 52.00,423.00
           C 52.00,423.00 39.02,435.00 39.02,435.00
             39.02,435.00 35.20,441.00 35.20,441.00
             35.20,441.00 42.00,450.00 42.00,450.00
             42.00,450.00 62.00,470.00 62.00,470.00
             62.00,470.00 71.00,476.80 71.00,476.80
             71.00,476.80 77.00,472.98 77.00,472.98
             77.00,472.98 89.00,460.00 89.00,460.00
             89.00,460.00 52.00,423.00 52.00,423.00 Z" />
</svg>
