<?xml version="1.0" encoding="UTF-8" standalone="no"?>
<!DOCTYPE svg PUBLIC "-//W3C//DTD SVG 20010904//EN"
              "http://www.w3.org/TR/2001/REC-SVG-20010904/DTD/svg10.dtd">

<svg xmlns="http://www.w3.org/2000/svg"
     width="180.6mm" height="180.6mm"
     viewBox="0 0 512 512">
  <path id="Selection"
        fill="white" stroke="white" stroke-width="1"
        d="M 341.00,14.53
           C 360.89,11.28 376.97,22.66 384.17,41.00
             386.65,47.30 387.44,56.20 387.79,63.00
             387.93,65.62 386.87,72.14 386.41,75.00
             383.30,94.16 372.79,114.63 362.58,131.00
             362.58,131.00 355.87,141.00 355.87,141.00
             351.72,147.61 355.62,151.29 355.87,160.00
             356.61,176.60 347.57,192.65 338.67,206.00
             338.67,206.00 304.37,254.00 304.37,254.00
             262.39,309.97 203.12,377.68 134.00,398.28
             119.47,402.61 105.06,404.39 90.00,405.04
             90.00,405.04 83.00,405.66 83.00,405.66
             83.00,405.66 69.00,405.00 69.00,405.00
             56.76,404.85 39.61,400.69 28.00,396.66
             19.91,393.85 12.04,390.49 6.18,383.98
             -4.52,372.09 -1.34,352.52 12.00,343.97
             18.24,339.97 23.92,339.92 31.00,340.00
             31.00,340.00 41.00,340.91 41.00,340.91
             48.21,341.40 56.89,340.66 64.00,339.39
             99.52,333.04 125.11,308.52 147.73,282.00
             172.11,253.41 205.86,205.37 225.40,173.00
             242.70,144.33 261.83,113.20 299.00,111.09
             302.56,110.89 306.95,112.30 309.67,110.36
             311.69,108.93 315.44,102.41 316.95,100.00
             316.95,100.00 330.69,77.00 330.69,77.00
             331.98,74.63 335.98,67.44 335.77,65.04
             335.36,60.39 327.86,58.54 323.53,51.00
             315.25,36.55 326.05,18.95 341.00,14.53 Z
           M 340.00,126.00
           C 352.83,109.38 370.39,76.55 366.00,55.00
             364.37,47.03 361.71,40.69 354.00,36.84
             351.03,35.35 344.22,33.65 342.88,38.19
             341.81,41.82 350.20,46.91 352.70,49.43
             358.93,55.68 360.37,61.60 357.78,70.00
             354.68,80.06 344.76,95.72 338.95,105.00
             337.24,107.73 331.32,115.89 331.87,118.82
             332.40,121.58 337.73,124.58 340.00,126.00 Z
           M 462.00,156.00
           C 438.89,145.58 441.65,119.96 459.00,109.95
             469.91,103.66 484.51,106.77 493.96,114.24
             499.76,118.82 504.05,124.35 507.22,131.00
             511.29,139.55 512.11,147.70 512.00,157.00
             511.78,175.86 502.40,197.89 492.99,214.00
             492.99,214.00 478.35,237.58 478.35,237.58
             477.65,239.95 479.09,243.52 479.77,246.00
             480.14,249.35 480.04,253.55 479.77,257.00
             479.83,270.89 472.93,283.56 465.68,295.00
             465.68,295.00 433.37,341.00 433.37,341.00
             399.32,386.83 354.64,439.13 306.00,469.42
             280.07,485.57 247.95,497.95 217.00,498.00
             217.00,498.00 197.00,498.00 197.00,498.00
             179.50,497.97 149.10,491.48 135.00,481.07
             118.61,468.97 121.09,443.71 139.00,435.52
             149.43,430.74 162.67,434.13 174.00,434.00
             204.08,433.64 230.99,417.29 252.00,396.96
             252.00,396.96 262.04,386.00 262.04,386.00
             289.14,357.62 320.73,311.49 342.31,278.00
             351.89,263.13 366.43,237.03 377.43,225.09
             386.61,215.11 401.71,207.84 415.00,205.46
             415.00,205.46 427.00,204.03 427.00,204.03
             429.11,204.16 431.72,204.91 433.62,204.03
             435.77,202.73 440.97,193.58 442.58,191.00
             449.64,179.66 456.70,168.30 462.00,156.00 Z
           M 465.00,219.00
           C 465.00,219.00 472.55,207.00 472.55,207.00
             482.35,190.76 491.84,171.44 490.96,152.00
             490.64,144.93 487.70,136.20 481.91,131.80
             475.72,127.09 469.38,125.95 466.00,134.00
             469.94,136.27 473.70,138.89 476.96,142.09
             486.60,151.57 484.20,158.92 479.42,170.00
             479.42,170.00 455.00,213.00 455.00,213.00
             455.00,213.00 465.00,219.00 465.00,219.00 Z
           M 300.00,132.29
           C 272.78,136.75 262.20,153.09 249.00,175.00
             249.00,175.00 233.33,200.00 233.33,200.00
             200.84,248.97 162.10,311.46 112.00,343.31
             91.33,356.44 67.25,362.04 43.00,362.00
             43.00,362.00 26.02,361.31 26.02,361.31
             23.00,362.10 20.64,364.63 21.66,367.91
             23.01,372.30 32.87,376.21 37.00,377.66
             53.55,383.43 69.72,384.03 87.00,384.00
             96.71,383.98 109.53,381.73 119.00,379.37
             178.50,364.57 226.98,315.66 265.08,270.00
             265.08,270.00 296.00,230.00 296.00,230.00
             296.00,230.00 323.81,189.00 323.81,189.00
             327.72,182.70 332.63,176.35 334.32,169.00
             339.00,148.60 320.03,130.83 300.00,132.29 Z
           M 420.00,225.30
           C 398.28,229.40 387.37,246.83 376.31,264.00
             376.31,264.00 356.58,295.00 356.58,295.00
             356.58,295.00 316.71,353.00 316.71,353.00
             295.79,382.36 269.88,415.57 239.00,434.81
             216.82,448.63 194.15,455.30 168.00,455.00
             162.64,454.93 147.93,451.28 145.84,458.11
             143.92,464.38 154.62,468.12 159.00,469.66
             176.68,475.83 190.51,477.03 209.00,477.00
             218.89,476.98 233.34,474.78 243.00,472.37
             302.01,457.69 346.69,412.66 385.13,368.00
             385.13,368.00 419.71,324.00 419.71,324.00
             419.71,324.00 445.67,286.00 445.67,286.00
             449.38,280.42 457.06,269.17 458.47,263.00
             464.03,238.81 442.25,223.09 420.00,225.30 Z
           M 414.01,266.74
           C 423.18,264.53 431.62,269.87 428.03,280.00
             426.13,285.36 413.73,301.38 409.71,307.00
             407.09,310.66 404.17,315.47 399.99,317.42
             391.74,321.24 383.12,313.76 385.65,305.00
             387.07,300.08 399.91,283.32 403.71,278.00
             406.95,273.45 408.99,269.48 414.01,266.74 Z
           M 371.00,326.57
           C 385.67,324.77 387.41,343.27 376.00,346.43
             363.77,349.81 356.30,331.73 371.00,326.57 Z" />
</svg>
