<?xml version="1.0" encoding="UTF-8" standalone="no"?>
<!DOCTYPE svg PUBLIC "-//W3C//DTD SVG 20010904//EN"
              "http://www.w3.org/TR/2001/REC-SVG-20010904/DTD/svg10.dtd">

<svg xmlns="http://www.w3.org/2000/svg"
     width="135.45mm" height="135.45mm"
     viewBox="0 0 512 512">
  <path id="Selection"
        fill="white" stroke="white" stroke-width="1"
        d="M 161.00,25.21
           C 161.00,25.21 186.00,25.21 186.00,25.21
             191.71,25.07 198.41,26.37 204.00,27.65
             227.72,33.09 245.83,43.84 263.00,61.00
             288.02,86.01 304.47,112.20 314.98,146.00
             319.51,160.60 323.35,179.78 325.05,195.00
             325.64,200.31 326.23,215.21 329.43,218.73
             332.22,221.79 341.73,224.16 346.00,225.81
             355.30,229.41 364.80,234.37 373.00,240.02
             385.99,248.99 397.39,260.15 406.57,273.00
             409.83,277.55 418.36,293.38 421.10,295.26
             423.88,297.17 433.05,297.81 437.00,298.66
             445.87,300.58 453.97,303.55 462.00,307.78
             482.91,318.79 498.45,336.94 506.68,359.00
             510.19,368.39 511.98,369.63 512.00,380.00
             512.00,380.00 512.00,406.00 512.00,406.00
             511.90,413.89 506.78,425.81 503.24,433.00
             488.30,463.40 456.77,486.95 422.00,487.00
             422.00,487.00 289.00,487.00 289.00,487.00
             274.70,486.98 255.07,481.92 242.00,476.14
             236.70,473.80 222.70,464.86 218.00,465.74
             215.62,466.18 207.67,470.43 205.00,471.75
             198.84,474.81 191.56,477.55 185.00,479.66
             162.03,487.02 147.49,487.11 124.00,487.00
             113.30,486.95 99.09,483.66 89.00,480.05
             53.96,467.49 29.35,445.28 12.75,412.00
             6.57,399.60 0.02,378.84 0.00,365.00
             0.00,365.00 0.00,342.00 0.00,342.00
             0.03,324.60 9.73,298.92 18.60,284.00
             31.62,262.12 42.79,257.35 53.13,239.00
             60.63,225.67 62.17,213.92 62.00,199.00
             61.88,189.23 58.98,182.21 57.43,173.00
             57.43,173.00 55.91,157.00 55.91,157.00
             55.67,153.55 54.92,151.63 55.18,148.00
             56.54,128.96 59.26,111.57 67.31,94.00
             85.17,55.02 119.31,31.72 161.00,25.21 Z
           M 130.00,72.00
           C 137.29,73.31 142.40,72.67 147.61,79.04
             154.34,87.28 149.94,99.23 140.00,102.35
             137.59,103.11 134.53,103.00 132.00,103.00
             132.00,103.00 108.00,103.00 108.00,103.00
             105.25,103.00 101.62,102.78 99.18,104.17
             95.71,106.16 93.75,111.39 92.44,115.00
             88.35,126.20 87.26,136.28 86.51,148.00
             85.43,165.04 92.97,181.11 93.00,198.00
             93.03,215.92 92.44,224.85 85.94,242.00
             81.40,253.96 74.39,265.49 65.83,275.00
             65.83,275.00 56.44,285.00 56.44,285.00
             53.80,288.13 45.12,298.33 46.68,302.57
             47.76,305.51 53.47,305.00 56.00,305.00
             56.00,305.00 86.00,305.00 86.00,305.00
             102.59,305.22 109.07,323.09 95.98,332.35
             91.93,335.22 88.68,334.99 84.00,335.00
             84.00,335.00 48.00,335.00 48.00,335.00
             44.38,335.00 36.35,334.26 33.70,336.74
             30.79,339.45 31.01,345.33 31.00,349.00
             31.00,349.00 31.00,360.00 31.00,360.00
             31.05,393.30 54.88,428.68 84.00,443.74
             110.10,457.24 134.45,459.00 163.00,453.20
             168.58,452.07 186.11,447.32 189.67,443.59
             193.62,439.44 189.21,434.53 186.63,431.00
             177.15,418.03 178.89,415.02 166.00,415.00
             166.00,415.00 146.00,415.00 146.00,415.00
             135.38,414.85 125.59,405.89 130.01,395.00
             134.37,384.22 143.48,385.05 153.00,385.00
             159.47,384.97 163.44,384.83 162.83,377.00
             162.83,377.00 160.34,352.00 160.34,352.00
             160.34,352.00 161.04,346.00 161.04,346.00
             161.04,346.00 161.04,338.00 161.04,338.00
             163.68,311.69 175.47,285.12 192.44,265.00
             211.22,242.74 236.73,227.03 265.00,220.13
             270.09,218.89 278.86,217.27 284.00,217.04
             286.83,216.91 291.23,217.39 293.40,215.26
             295.40,213.30 295.05,208.65 294.99,206.00
             294.99,206.00 292.19,185.00 292.19,185.00
             291.62,182.19 290.91,178.65 288.58,176.74
             286.25,174.82 282.85,175.02 280.00,175.00
             280.00,175.00 220.00,175.00 220.00,175.00
             214.73,174.99 211.40,175.17 207.04,171.61
             197.98,164.20 199.57,151.70 210.00,146.45
             213.27,144.81 216.47,145.01 220.00,145.00
             220.00,145.00 269.00,145.00 269.00,145.00
             280.95,144.98 280.37,140.58 275.74,131.00
             271.14,121.46 265.45,112.59 259.29,104.00
             241.10,78.63 213.70,56.05 181.00,56.00
             165.63,55.98 157.73,55.90 143.00,62.01
             137.68,64.22 131.88,66.16 130.00,72.00 Z
           M 131.00,201.65
           C 136.68,200.47 151.43,200.97 158.00,201.00
             162.26,201.02 165.32,201.00 168.96,203.65
             177.10,209.58 177.10,222.42 168.96,228.35
             165.02,231.22 161.58,230.99 157.00,231.00
             150.19,231.01 133.29,232.23 128.02,228.99
             118.11,222.92 117.92,207.15 131.00,201.65 Z
           M 293.00,247.29
           C 293.00,247.29 281.00,248.44 281.00,248.44
             261.27,251.53 242.09,260.17 227.00,273.29
             185.53,309.35 179.18,375.80 215.30,418.00
             222.49,426.40 230.75,433.64 240.00,439.66
             242.68,441.40 248.89,445.27 251.98,445.47
             259.51,445.95 254.17,437.62 261.21,430.10
             268.83,421.96 280.60,424.15 285.55,434.00
             287.52,437.93 286.93,442.71 287.00,447.00
             287.16,455.70 290.34,455.98 298.00,456.00
             298.00,456.00 372.00,456.00 372.00,456.00
             382.03,456.12 384.98,458.40 385.00,445.00
             385.00,445.00 385.00,402.00 385.00,402.00
             385.04,399.02 385.07,396.75 386.45,394.00
             393.88,379.23 414.75,383.50 415.00,402.00
             415.00,402.00 415.00,445.00 415.00,445.00
             415.00,447.76 414.65,452.18 416.74,454.26
             419.13,456.65 424.01,455.91 427.00,455.39
             435.89,453.82 444.37,450.80 452.00,445.91
             468.59,435.27 480.76,415.99 481.00,396.00
             481.00,396.00 481.00,388.00 481.00,388.00
             480.69,361.71 460.70,338.17 436.00,330.72
             423.91,327.07 409.15,328.84 400.04,321.47
             394.21,316.76 391.15,308.58 387.74,302.00
             383.64,294.06 374.09,280.57 367.00,275.43
             359.06,269.67 359.01,277.35 359.00,283.00
             359.00,283.00 359.00,292.00 359.00,292.00
             358.99,297.27 359.17,300.60 355.61,304.96
             348.20,314.02 335.70,312.43 330.45,302.00
             328.81,298.73 329.01,295.53 329.00,292.00
             329.00,292.00 329.00,262.00 329.00,262.00
             328.95,258.82 328.97,255.87 326.57,253.43
             324.48,251.30 320.83,250.54 318.00,249.89
             312.63,248.64 298.26,246.91 293.00,247.29 Z
           M 259.00,305.65
           C 261.64,305.10 263.26,304.85 266.00,305.10
             281.84,306.60 279.00,323.81 279.00,335.00
             279.00,344.30 280.25,354.82 269.00,358.35
             267.21,358.91 264.87,359.04 263.00,358.95
             245.89,358.20 249.00,339.78 249.00,328.00
             249.00,323.52 248.45,316.95 250.45,313.00
             252.47,309.03 255.05,307.31 259.00,305.65 Z" />
</svg>
