<?xml version="1.0" encoding="UTF-8" standalone="no"?>
<!DOCTYPE svg PUBLIC "-//W3C//DTD SVG 20010904//EN"
              "http://www.w3.org/TR/2001/REC-SVG-20010904/DTD/svg10.dtd">

<svg xmlns="http://www.w3.org/2000/svg"
     width="180.282mm" height="180.282mm"
     viewBox="0 0 512 512">
  <path id="Selection"
        fill="white" stroke="white" stroke-width="1"
        d="M 203.00,83.00
           C 203.00,83.00 184.97,52.00 184.97,52.00
             175.65,33.36 174.83,0.33 203.00,0.00
             206.34,-0.04 209.76,-0.13 213.00,0.79
             234.60,6.92 253.53,37.89 263.24,57.00
             263.24,57.00 271.78,75.00 271.78,75.00
             272.76,77.09 274.90,82.02 276.49,83.40
             278.36,85.01 280.68,85.01 283.00,84.83
             283.00,84.83 302.00,83.00 302.00,83.00
             320.49,82.97 333.86,83.25 352.00,88.43
             362.81,91.51 378.54,99.62 389.00,98.90
             394.92,98.50 400.64,95.84 405.00,91.90
             409.47,87.86 413.18,81.68 420.00,82.23
             430.28,83.06 430.84,92.31 427.94,100.00
             422.31,114.89 412.09,126.91 401.00,138.00
             408.72,141.97 415.80,148.91 421.99,154.96
             434.09,166.81 441.76,174.80 451.33,189.00
             499.26,260.12 498.32,352.04 446.53,421.00
             410.99,468.30 358.85,498.14 301.00,508.58
             278.54,512.63 261.56,512.26 239.00,512.00
             227.08,511.86 205.83,507.83 194.00,504.87
             146.34,492.96 101.95,466.46 71.00,428.00
             47.98,399.39 32.95,367.48 27.73,331.00
             27.73,331.00 26.00,315.00 26.00,315.00
             26.00,315.00 26.00,290.00 26.00,290.00
             26.06,251.77 45.42,207.68 68.66,178.00
             79.14,164.62 91.78,153.66 104.00,142.00
             93.96,134.17 82.91,114.02 78.20,102.00
             75.78,95.81 73.82,87.30 81.04,83.45
             90.10,78.63 94.39,86.76 100.04,91.79
             104.95,96.17 112.34,99.30 119.00,98.82
             131.39,97.92 142.19,91.38 154.00,88.15
             171.26,83.43 185.35,83.00 203.00,83.00 Z
           M 388.00,120.00
           C 369.36,119.83 354.34,109.83 333.00,105.80
             322.05,103.74 313.95,103.95 303.00,104.00
             303.00,104.00 281.00,106.00 281.00,106.00
             281.00,106.00 272.00,106.00 272.00,106.00
             259.73,105.83 258.65,97.53 254.57,88.00
             248.10,72.87 239.05,55.27 229.36,42.00
             224.98,36.01 219.94,29.51 214.00,25.04
             211.39,23.09 207.59,20.59 204.13,21.36
             200.98,22.05 200.25,25.19 200.13,28.00
             199.88,33.98 203.07,40.95 206.01,46.00
             221.91,73.29 229.62,86.65 242.28,116.00
             243.53,118.89 246.38,125.07 246.49,128.00
             246.69,133.60 240.69,139.48 235.00,138.34
             224.10,136.16 219.74,111.41 215.01,106.57
             212.73,104.24 204.27,104.02 201.00,104.00
             188.07,103.94 175.61,104.41 163.00,107.73
             141.71,113.34 137.30,120.00 113.00,120.00
             125.01,138.92 149.63,151.89 172.00,152.00
             181.14,152.04 183.80,152.11 193.00,150.57
             197.19,149.86 204.17,147.74 208.00,148.15
             212.63,148.64 216.88,152.27 217.51,157.00
             218.31,163.10 210.08,171.54 206.42,176.00
             198.06,186.21 187.46,201.19 184.00,214.00
             184.00,214.00 195.00,209.45 195.00,209.45
             195.00,209.45 206.00,205.55 206.00,205.55
             214.35,202.17 226.21,195.50 233.00,189.70
             235.81,187.30 238.97,184.27 240.73,181.00
             243.59,175.65 243.92,168.50 252.00,167.83
             261.22,167.08 262.74,177.71 264.45,181.00
             266.22,184.40 268.80,186.54 272.00,188.53
             287.47,198.18 292.02,195.93 308.00,198.44
             308.00,198.44 323.00,202.00 323.00,202.00
             319.00,187.19 310.32,177.25 300.58,166.00
             296.29,161.05 288.11,154.83 288.11,148.00
             288.11,138.41 296.58,137.08 304.00,138.66
             311.95,140.36 327.14,143.35 335.00,142.91
             353.30,141.87 376.68,135.46 388.00,120.00 Z
           M 182.00,173.00
           C 166.24,173.00 155.01,172.51 140.00,166.55
             140.00,166.55 123.00,158.40 123.00,158.40
             121.43,157.88 120.55,157.86 119.00,158.40
             116.07,159.54 109.40,165.67 107.00,168.01
             100.12,174.73 93.00,181.48 87.00,189.00
             65.02,216.55 47.06,256.20 47.00,292.00
             47.00,292.00 47.00,314.00 47.00,314.00
             47.14,325.83 51.88,345.63 55.67,357.00
             75.75,417.31 125.74,460.25 185.00,480.00
             199.98,484.99 225.37,490.81 241.00,491.00
             261.26,491.23 278.91,491.33 299.00,487.54
             360.12,476.01 416.95,437.80 445.74,382.00
             477.79,319.89 469.85,245.61 426.40,191.00
             418.55,181.14 406.78,168.87 397.00,161.00
             394.50,158.99 387.59,153.17 385.00,152.24
             381.06,150.83 370.70,156.75 366.00,158.33
             353.33,162.60 340.31,164.00 327.00,164.00
             327.00,164.00 337.03,181.00 337.03,181.00
             342.13,191.14 345.43,201.82 347.25,213.00
             348.26,219.28 349.90,227.95 344.86,232.77
             335.16,242.05 328.74,228.20 318.00,222.83
             307.72,217.69 295.84,219.39 285.00,216.62
             277.66,214.74 267.37,210.15 261.00,206.06
             261.00,206.06 252.00,200.00 252.00,200.00
             242.53,209.39 231.14,217.13 219.00,222.69
             207.36,228.02 197.48,229.37 187.00,238.30
             179.06,245.06 171.42,257.87 162.18,251.91
             154.62,247.04 157.28,236.37 158.42,229.00
             160.83,213.52 166.44,198.47 174.45,185.00
             174.45,185.00 182.00,173.00 182.00,173.00 Z
           M 327.00,163.00
           C 327.00,163.00 326.00,163.00 326.00,163.00
             326.00,163.00 327.00,164.00 327.00,164.00
             327.00,164.00 327.00,163.00 327.00,163.00 Z
           M 78.00,291.57
           C 91.23,290.46 90.89,301.39 91.00,311.00
             91.07,316.81 91.80,318.53 92.75,324.00
             96.53,345.71 105.30,366.29 118.48,384.00
             142.67,416.51 176.05,436.68 215.00,446.37
             223.06,448.38 237.86,450.96 246.00,451.00
             250.91,451.02 257.55,450.52 261.88,453.28
             267.46,456.92 267.48,466.51 261.88,470.26
             258.19,472.80 247.75,472.05 243.00,472.00
             233.35,471.88 216.55,468.76 207.00,466.37
             165.97,456.11 127.92,433.19 102.48,399.00
             97.03,391.68 92.49,383.91 88.00,376.00
             78.49,359.27 70.03,330.28 70.00,311.00
             69.99,302.24 67.77,294.71 78.00,291.57 Z
           M 295.00,447.57
           C 309.94,445.64 311.47,464.28 300.00,467.43
             287.72,470.80 280.62,452.63 295.00,447.57 Z" />
</svg>
